<?xml version="1.0" encoding="utf-8"?>
<!-- Generator: Adobe Illustrator 19.1.0, SVG Export Plug-In . SVG Version: 6.00 Build 0)  -->
<svg version="1.2" baseProfile="tiny" id="Layer_1" xmlns="http://www.w3.org/2000/svg" xmlns:xlink="http://www.w3.org/1999/xlink"
	 x="0px" y="0px" width="16px" height="18px" viewBox="0 0 16 18" xml:space="preserve">
<g>
	<path fill="#078bf2" d="M15,14c-0.6,0-1,0.4-1,1v1H2v-1c0-0.6-0.4-1-1-1s-1,0.4-1,1v2c0,0.6,0.4,1,1,1h14c0.6,0,1-0.4,1-1v-2
		C16,14.4,15.6,14,15,14z"/>
	<path fill="#078bf2" d="M7.2,12.7C7.4,12.9,7.7,13,8,13c0,0,0,0,0,0c0.3,0,0.6-0.1,0.7-0.3c0,0,0,0,0,0l2.9-2.9
		c0.4-0.4,0.4-1,0-1.4c-0.4-0.4-1-0.4-1.4,0L9,9.6V1c0-0.6-0.4-1-1-1S7,0.4,7,1v8.7L5.7,8.4C5.3,8,4.7,8,4.3,8.4
		c-0.4,0.4-0.4,1,0,1.4L7.2,12.7z"/>
</g>
</svg>
